<mxfile host="65bd71144e">
    <diagram name="Seite-1" id="1UqIFNeRel8w9c3Ury_5">
        <mxGraphModel dx="99" dy="304" grid="1" gridSize="10" guides="1" tooltips="1" connect="1" arrows="1" fold="1" page="1" pageScale="1" pageWidth="827" pageHeight="1169" math="0" shadow="0">
            <root>
                <mxCell id="0"/>
                <mxCell id="1" parent="0"/>
                <mxCell id="iihOq3sOjZAMv7ztsFPM-3" value="VPC" style="sketch=0;outlineConnect=0;gradientColor=none;html=1;whiteSpace=wrap;fontSize=12;fontStyle=0;shape=mxgraph.aws4.group;grIcon=mxgraph.aws4.group_vpc;strokeColor=#000000;fillColor=none;verticalAlign=top;align=left;spacingLeft=30;fontColor=#333333;dashed=0;" parent="1" vertex="1">
                    <mxGeometry x="330" y="170" width="330" height="240" as="geometry"/>
                </mxCell>
                <mxCell id="iihOq3sOjZAMv7ztsFPM-20" value="Public subnet" style="points=[[0,0],[0.25,0],[0.5,0],[0.75,0],[1,0],[1,0.25],[1,0.5],[1,0.75],[1,1],[0.75,1],[0.5,1],[0.25,1],[0,1],[0,0.75],[0,0.5],[0,0.25]];outlineConnect=0;gradientColor=none;html=1;whiteSpace=wrap;fontSize=12;fontStyle=0;container=1;pointerEvents=0;collapsible=0;recursiveResize=0;shape=mxgraph.aws4.group;grIcon=mxgraph.aws4.group_security_group;grStroke=0;strokeColor=#248814;fillColor=#E9F3E6;verticalAlign=top;align=left;spacingLeft=30;fontColor=#248814;dashed=0;" parent="1" vertex="1">
                    <mxGeometry x="380" y="210" width="280" height="200" as="geometry"/>
                </mxCell>
                <mxCell id="iihOq3sOjZAMv7ztsFPM-31" value="&lt;span style=&quot;font-size: 8px;&quot;&gt;etcd3&lt;/span&gt;" style="text;html=1;strokeColor=none;fillColor=none;align=center;verticalAlign=bottom;whiteSpace=wrap;rounded=0;" parent="iihOq3sOjZAMv7ztsFPM-20" vertex="1">
                    <mxGeometry x="151" y="155" width="20" height="8.75" as="geometry"/>
                </mxCell>
                <mxCell id="iihOq3sOjZAMv7ztsFPM-33" value="&lt;span style=&quot;font-size: 8px;&quot;&gt;etcd1&lt;br&gt;&lt;/span&gt;" style="text;html=1;strokeColor=none;fillColor=none;align=center;verticalAlign=bottom;whiteSpace=wrap;rounded=0;" parent="iihOq3sOjZAMv7ztsFPM-20" vertex="1">
                    <mxGeometry x="81.5" y="80" width="20" height="8.75" as="geometry"/>
                </mxCell>
                <mxCell id="iihOq3sOjZAMv7ztsFPM-32" value="" style="sketch=0;points=[[0,0,0],[0.25,0,0],[0.5,0,0],[0.75,0,0],[1,0,0],[0,1,0],[0.25,1,0],[0.5,1,0],[0.75,1,0],[1,1,0],[0,0.25,0],[0,0.5,0],[0,0.75,0],[1,0.25,0],[1,0.5,0],[1,0.75,0]];outlineConnect=0;fontColor=#232F3E;gradientColor=#F78E04;gradientDirection=north;fillColor=#D05C17;strokeColor=#ffffff;dashed=0;verticalLabelPosition=bottom;verticalAlign=top;align=center;html=1;fontSize=12;fontStyle=0;aspect=fixed;shape=mxgraph.aws4.resourceIcon;resIcon=mxgraph.aws4.ec2;" parent="iihOq3sOjZAMv7ztsFPM-20" vertex="1">
                    <mxGeometry x="77.75" y="88.75" width="27.5" height="27.5" as="geometry"/>
                </mxCell>
                <mxCell id="iihOq3sOjZAMv7ztsFPM-8" value="Security group" style="fillColor=none;strokeColor=#DD3522;verticalAlign=top;fontStyle=0;fontColor=#DD3522;whiteSpace=wrap;html=1;" parent="iihOq3sOjZAMv7ztsFPM-20" vertex="1">
                    <mxGeometry x="40" y="40" width="240" height="160" as="geometry"/>
                </mxCell>
                <mxCell id="iihOq3sOjZAMv7ztsFPM-2" value="" style="sketch=0;outlineConnect=0;fontColor=#232F3E;gradientColor=none;fillColor=#4D27AA;strokeColor=none;dashed=0;verticalLabelPosition=bottom;verticalAlign=top;align=center;html=1;fontSize=12;fontStyle=0;aspect=fixed;pointerEvents=1;shape=mxgraph.aws4.internet_gateway;" parent="1" vertex="1">
                    <mxGeometry x="272" y="286" width="40" height="40" as="geometry"/>
                </mxCell>
                <mxCell id="iihOq3sOjZAMv7ztsFPM-13" value="" style="edgeStyle=orthogonalEdgeStyle;html=1;endArrow=block;startArrow=block;startFill=1;endFill=1;strokeColor=#545B64;rounded=0;exitX=0.5;exitY=1;exitDx=0;exitDy=0;exitPerimeter=0;entryX=0;entryY=0.5;entryDx=0;entryDy=0;entryPerimeter=0;curved=1;" parent="1" source="iihOq3sOjZAMv7ztsFPM-32" target="iihOq3sOjZAMv7ztsFPM-24" edge="1">
                    <mxGeometry width="100" relative="1" as="geometry">
                        <mxPoint x="483.5" y="326.24999999999994" as="sourcePoint"/>
                        <mxPoint x="522.25" y="383.75" as="targetPoint"/>
                    </mxGeometry>
                </mxCell>
                <mxCell id="iihOq3sOjZAMv7ztsFPM-14" value="" style="edgeStyle=orthogonalEdgeStyle;html=1;endArrow=block;startArrow=block;startFill=1;endFill=1;strokeColor=#545B64;rounded=0;curved=1;entryX=0;entryY=0.5;entryDx=0;entryDy=0;entryPerimeter=0;exitX=1;exitY=0.5;exitDx=0;exitDy=0;exitPerimeter=0;" parent="1" source="iihOq3sOjZAMv7ztsFPM-32" target="iihOq3sOjZAMv7ztsFPM-23" edge="1">
                    <mxGeometry width="100" relative="1" as="geometry">
                        <mxPoint x="497.25" y="312.5" as="sourcePoint"/>
                        <mxPoint x="589.75" y="313.75" as="targetPoint"/>
                    </mxGeometry>
                </mxCell>
                <mxCell id="iihOq3sOjZAMv7ztsFPM-15" value="" style="edgeStyle=orthogonalEdgeStyle;html=1;endArrow=block;startArrow=block;startFill=1;endFill=1;strokeColor=#545B64;rounded=0;exitX=1;exitY=0.5;exitDx=0;exitDy=0;exitPerimeter=0;entryX=0.5;entryY=1;entryDx=0;entryDy=0;entryPerimeter=0;curved=1;" parent="1" source="iihOq3sOjZAMv7ztsFPM-24" edge="1">
                    <mxGeometry width="100" relative="1" as="geometry">
                        <mxPoint x="567.25" y="383.75" as="sourcePoint"/>
                        <mxPoint x="603.5" y="326.25" as="targetPoint"/>
                    </mxGeometry>
                </mxCell>
                <mxCell id="iihOq3sOjZAMv7ztsFPM-18" value="" style="sketch=0;outlineConnect=0;fontColor=#232F3E;gradientColor=none;fillColor=#232F3D;strokeColor=none;dashed=0;verticalLabelPosition=bottom;verticalAlign=top;align=center;html=1;fontSize=12;fontStyle=0;aspect=fixed;pointerEvents=1;shape=mxgraph.aws4.users;" parent="1" vertex="1">
                    <mxGeometry x="150" y="282.25" width="47.5" height="47.5" as="geometry"/>
                </mxCell>
                <mxCell id="iihOq3sOjZAMv7ztsFPM-19" value="" style="edgeStyle=orthogonalEdgeStyle;html=1;endArrow=block;elbow=vertical;startArrow=none;endFill=1;strokeColor=#545B64;rounded=0;" parent="1" source="iihOq3sOjZAMv7ztsFPM-18" target="iihOq3sOjZAMv7ztsFPM-2" edge="1">
                    <mxGeometry width="100" relative="1" as="geometry">
                        <mxPoint x="80" y="370" as="sourcePoint"/>
                        <mxPoint x="180" y="370" as="targetPoint"/>
                    </mxGeometry>
                </mxCell>
                <mxCell id="iihOq3sOjZAMv7ztsFPM-21" value="" style="edgeStyle=orthogonalEdgeStyle;html=1;endArrow=block;elbow=vertical;startArrow=none;endFill=1;strokeColor=#545B64;rounded=0;entryX=-0.002;entryY=0.35;entryDx=0;entryDy=0;entryPerimeter=0;" parent="1" source="iihOq3sOjZAMv7ztsFPM-2" target="iihOq3sOjZAMv7ztsFPM-8" edge="1">
                    <mxGeometry width="100" relative="1" as="geometry">
                        <mxPoint x="167" y="273" as="sourcePoint"/>
                        <mxPoint x="260" y="273" as="targetPoint"/>
                    </mxGeometry>
                </mxCell>
                <mxCell id="iihOq3sOjZAMv7ztsFPM-23" value="" style="sketch=0;points=[[0,0,0],[0.25,0,0],[0.5,0,0],[0.75,0,0],[1,0,0],[0,1,0],[0.25,1,0],[0.5,1,0],[0.75,1,0],[1,1,0],[0,0.25,0],[0,0.5,0],[0,0.75,0],[1,0.25,0],[1,0.5,0],[1,0.75,0]];outlineConnect=0;fontColor=#232F3E;gradientColor=#F78E04;gradientDirection=north;fillColor=#D05C17;strokeColor=#ffffff;dashed=0;verticalLabelPosition=bottom;verticalAlign=top;align=center;html=1;fontSize=12;fontStyle=0;aspect=fixed;shape=mxgraph.aws4.resourceIcon;resIcon=mxgraph.aws4.ec2;" parent="1" vertex="1">
                    <mxGeometry x="589.75" y="298.75" width="27.5" height="27.5" as="geometry"/>
                </mxCell>
                <mxCell id="iihOq3sOjZAMv7ztsFPM-24" value="" style="sketch=0;points=[[0,0,0],[0.25,0,0],[0.5,0,0],[0.75,0,0],[1,0,0],[0,1,0],[0.25,1,0],[0.5,1,0],[0.75,1,0],[1,1,0],[0,0.25,0],[0,0.5,0],[0,0.75,0],[1,0.25,0],[1,0.5,0],[1,0.75,0]];outlineConnect=0;fontColor=#232F3E;gradientColor=#F78E04;gradientDirection=north;fillColor=#D05C17;strokeColor=#ffffff;dashed=0;verticalLabelPosition=bottom;verticalAlign=top;align=center;html=1;fontSize=12;fontStyle=0;aspect=fixed;shape=mxgraph.aws4.resourceIcon;resIcon=mxgraph.aws4.ec2;" parent="1" vertex="1">
                    <mxGeometry x="526" y="373.75" width="27.5" height="27.5" as="geometry"/>
                </mxCell>
                <mxCell id="iihOq3sOjZAMv7ztsFPM-29" value="&lt;span style=&quot;font-size: 8px;&quot;&gt;etcd2&lt;br&gt;&lt;/span&gt;" style="text;html=1;strokeColor=none;fillColor=none;align=center;verticalAlign=bottom;whiteSpace=wrap;rounded=0;" parent="1" vertex="1">
                    <mxGeometry x="593.5" y="290" width="20" height="8.75" as="geometry"/>
                </mxCell>
                <mxCell id="iihOq3sOjZAMv7ztsFPM-34" value="&lt;font style=&quot;font-size: 8px;&quot;&gt;Internet Gateway&lt;/font&gt;" style="text;html=1;strokeColor=none;fillColor=none;align=center;verticalAlign=top;whiteSpace=wrap;rounded=0;" parent="1" vertex="1">
                    <mxGeometry x="257" y="317.25" width="70" height="8.75" as="geometry"/>
                </mxCell>
                <mxCell id="iihOq3sOjZAMv7ztsFPM-40" value="AWS Cloud" style="points=[[0,0],[0.25,0],[0.5,0],[0.75,0],[1,0],[1,0.25],[1,0.5],[1,0.75],[1,1],[0.75,1],[0.5,1],[0.25,1],[0,1],[0,0.75],[0,0.5],[0,0.25]];outlineConnect=0;gradientColor=none;html=1;whiteSpace=wrap;fontSize=12;fontStyle=0;container=1;pointerEvents=0;collapsible=0;recursiveResize=0;shape=mxgraph.aws4.group;grIcon=mxgraph.aws4.group_aws_cloud_alt;strokeColor=#232F3E;fillColor=none;verticalAlign=top;align=left;spacingLeft=30;fontColor=#232F3E;dashed=0;" parent="1" vertex="1">
                    <mxGeometry x="257" y="140" width="403" height="270" as="geometry"/>
                </mxCell>
            </root>
        </mxGraphModel>
    </diagram>
</mxfile>